<?xml version="1.0" encoding="utf-8" standalone="no"?>
<!DOCTYPE svg PUBLIC "-//W3C//DTD SVG 1.1//EN"
  "http://www.w3.org/Graphics/SVG/1.1/DTD/svg11.dtd">
<svg xmlns:xlink="http://www.w3.org/1999/xlink" width="767.568742pt" height="410.481562pt" viewBox="0 0 767.568742 410.481562" xmlns="http://www.w3.org/2000/svg" version="1.1">
 <metadata>
  <rdf:RDF xmlns:dc="http://purl.org/dc/elements/1.1/" xmlns:cc="http://creativecommons.org/ns#" xmlns:rdf="http://www.w3.org/1999/02/22-rdf-syntax-ns#">
   <cc:Work>
    <dc:type rdf:resource="http://purl.org/dc/dcmitype/StillImage"/>
    <dc:date>2026-05-15T10:34:52.651585</dc:date>
    <dc:format>image/svg+xml</dc:format>
    <dc:creator>
     <cc:Agent>
      <dc:title>Matplotlib v3.10.8, https://matplotlib.org/</dc:title>
     </cc:Agent>
    </dc:creator>
   </cc:Work>
  </rdf:RDF>
 </metadata>
 <defs>
  <style type="text/css">*{stroke-linejoin: round; stroke-linecap: butt}</style>
 </defs>
 <g id="figure_1">
  <g id="patch_1">
   <path d="M 0 410.481562 
L 767.568742 410.481562 
L 767.568742 0 
L 0 0 
z
" style="fill: #ffffff"/>
  </g>
  <g id="axes_1">
   <g id="patch_2">
    <path d="M 38.070938 375.4575 
L 760.368742 375.4575 
L 760.368742 25.3575 
L 38.070938 25.3575 
z
" style="fill: #ffffff"/>
   </g>
   <g id="matplotlib.axis_1">
    <g id="xtick_1">
     <g id="line2d_1">
      <path d="M 83.359134 375.4575 
L 83.359134 25.3575 
" clip-path="url(#p75067325a1)" style="fill: none; stroke: #e2e8f0; stroke-width: 0.8; stroke-linecap: round"/>
     </g>
     <g id="line2d_2"/>
     <g id="text_1">
      <text style="font-size: 10px; font-family: 'DejaVu Sans'; text-anchor: middle; fill: #334155" x="83.359134" y="386.555937" transform="rotate(-0 83.359134 386.555937)">10</text>
     </g>
    </g>
    <g id="xtick_2">
     <g id="line2d_3">
      <path d="M 350.283674 375.4575 
L 350.283674 25.3575 
" clip-path="url(#p75067325a1)" style="fill: none; stroke: #e2e8f0; stroke-width: 0.8; stroke-linecap: round"/>
     </g>
     <g id="line2d_4"/>
     <g id="text_2">
      <text style="font-size: 10px; font-family: 'DejaVu Sans'; text-anchor: middle; fill: #334155" x="350.283674" y="386.555937" transform="rotate(-0 350.283674 386.555937)">40</text>
     </g>
    </g>
    <g id="xtick_3">
     <g id="line2d_5">
      <path d="M 617.208214 375.4575 
L 617.208214 25.3575 
" clip-path="url(#p75067325a1)" style="fill: none; stroke: #e2e8f0; stroke-width: 0.8; stroke-linecap: round"/>
     </g>
     <g id="line2d_6"/>
     <g id="text_3">
      <text style="font-size: 10px; font-family: 'DejaVu Sans'; text-anchor: middle; fill: #334155" x="617.208214" y="386.555937" transform="rotate(-0 617.208214 386.555937)">70</text>
     </g>
    </g>
    <g id="xtick_4">
     <g id="line2d_7">
      <path d="M 670.593122 375.4575 
L 670.593122 25.3575 
" clip-path="url(#p75067325a1)" style="fill: none; stroke: #e2e8f0; stroke-width: 0.8; stroke-linecap: round"/>
     </g>
     <g id="line2d_8"/>
     <g id="text_4">
      <text style="font-size: 10px; font-family: 'DejaVu Sans'; text-anchor: middle; fill: #334155" x="670.593122" y="386.555937" transform="rotate(-0 670.593122 386.555937)">76</text>
     </g>
    </g>
    <g id="xtick_5">
     <g id="line2d_9">
      <path d="M 679.490607 375.4575 
L 679.490607 25.3575 
" clip-path="url(#p75067325a1)" style="fill: none; stroke: #e2e8f0; stroke-width: 0.8; stroke-linecap: round"/>
     </g>
     <g id="line2d_10"/>
     <g id="text_5">
      <text style="font-size: 10px; font-family: 'DejaVu Sans'; text-anchor: middle; fill: #334155" x="679.490607" y="386.555937" transform="rotate(-0 679.490607 386.555937)">77</text>
     </g>
    </g>
    <g id="xtick_6">
     <g id="line2d_11">
      <path d="M 688.388091 375.4575 
L 688.388091 25.3575 
" clip-path="url(#p75067325a1)" style="fill: none; stroke: #e2e8f0; stroke-width: 0.8; stroke-linecap: round"/>
     </g>
     <g id="line2d_12"/>
     <g id="text_6">
      <text style="font-size: 10px; font-family: 'DejaVu Sans'; text-anchor: middle; fill: #334155" x="688.388091" y="386.555937" transform="rotate(-0 688.388091 386.555937)">78</text>
     </g>
    </g>
    <g id="xtick_7">
     <g id="line2d_13">
      <path d="M 697.285576 375.4575 
L 697.285576 25.3575 
" clip-path="url(#p75067325a1)" style="fill: none; stroke: #e2e8f0; stroke-width: 0.8; stroke-linecap: round"/>
     </g>
     <g id="line2d_14"/>
     <g id="text_7">
      <text style="font-size: 10px; font-family: 'DejaVu Sans'; text-anchor: middle; fill: #334155" x="697.285576" y="386.555937" transform="rotate(-0 697.285576 386.555937)">79</text>
     </g>
    </g>
    <g id="xtick_8">
     <g id="line2d_15">
      <path d="M 706.183061 375.4575 
L 706.183061 25.3575 
" clip-path="url(#p75067325a1)" style="fill: none; stroke: #e2e8f0; stroke-width: 0.8; stroke-linecap: round"/>
     </g>
     <g id="line2d_16"/>
     <g id="text_8">
      <text style="font-size: 10px; font-family: 'DejaVu Sans'; text-anchor: middle; fill: #334155" x="706.183061" y="386.555937" transform="rotate(-0 706.183061 386.555937)">80</text>
     </g>
    </g>
    <g id="xtick_9">
     <g id="line2d_17">
      <path d="M 715.080545 375.4575 
L 715.080545 25.3575 
" clip-path="url(#p75067325a1)" style="fill: none; stroke: #e2e8f0; stroke-width: 0.8; stroke-linecap: round"/>
     </g>
     <g id="line2d_18"/>
     <g id="text_9">
      <text style="font-size: 10px; font-family: 'DejaVu Sans'; text-anchor: middle; fill: #334155" x="715.080545" y="386.555937" transform="rotate(-0 715.080545 386.555937)">81</text>
     </g>
    </g>
    <g id="text_10">
     <text style="font-size: 11px; font-family: 'DejaVu Sans'; text-anchor: middle; fill: #0f172a" x="399.21984" y="400.993906" transform="rotate(-0 399.21984 400.993906)">WingtipToys benchmark run</text>
    </g>
   </g>
   <g id="matplotlib.axis_2">
    <g id="ytick_1">
     <g id="line2d_19">
      <path d="M 38.070938 375.4575 
L 760.368742 375.4575 
" clip-path="url(#p75067325a1)" style="fill: none; stroke: #e2e8f0; stroke-width: 0.8; stroke-linecap: round"/>
     </g>
     <g id="line2d_20"/>
     <g id="text_11">
      <text style="font-size: 10px; font-family: 'DejaVu Sans'; text-anchor: end; fill: #334155" x="34.570938" y="379.256719" transform="rotate(-0 34.570938 379.256719)">0</text>
     </g>
    </g>
    <g id="ytick_2">
     <g id="line2d_21">
      <path d="M 38.070938 310.624167 
L 760.368742 310.624167 
" clip-path="url(#p75067325a1)" style="fill: none; stroke: #e2e8f0; stroke-width: 0.8; stroke-linecap: round"/>
     </g>
     <g id="line2d_22"/>
     <g id="text_12">
      <text style="font-size: 10px; font-family: 'DejaVu Sans'; text-anchor: end; fill: #334155" x="34.570938" y="314.423385" transform="rotate(-0 34.570938 314.423385)">5</text>
     </g>
    </g>
    <g id="ytick_3">
     <g id="line2d_23">
      <path d="M 38.070938 245.790833 
L 760.368742 245.790833 
" clip-path="url(#p75067325a1)" style="fill: none; stroke: #e2e8f0; stroke-width: 0.8; stroke-linecap: round"/>
     </g>
     <g id="line2d_24"/>
     <g id="text_13">
      <text style="font-size: 10px; font-family: 'DejaVu Sans'; text-anchor: end; fill: #334155" x="34.570938" y="249.590052" transform="rotate(-0 34.570938 249.590052)">10</text>
     </g>
    </g>
    <g id="ytick_4">
     <g id="line2d_25">
      <path d="M 38.070938 180.9575 
L 760.368742 180.9575 
" clip-path="url(#p75067325a1)" style="fill: none; stroke: #e2e8f0; stroke-width: 0.8; stroke-linecap: round"/>
     </g>
     <g id="line2d_26"/>
     <g id="text_14">
      <text style="font-size: 10px; font-family: 'DejaVu Sans'; text-anchor: end; fill: #334155" x="34.570938" y="184.756719" transform="rotate(-0 34.570938 184.756719)">15</text>
     </g>
    </g>
    <g id="ytick_5">
     <g id="line2d_27">
      <path d="M 38.070938 116.124167 
L 760.368742 116.124167 
" clip-path="url(#p75067325a1)" style="fill: none; stroke: #e2e8f0; stroke-width: 0.8; stroke-linecap: round"/>
     </g>
     <g id="line2d_28"/>
     <g id="text_15">
      <text style="font-size: 10px; font-family: 'DejaVu Sans'; text-anchor: end; fill: #334155" x="34.570938" y="119.923385" transform="rotate(-0 34.570938 119.923385)">20</text>
     </g>
    </g>
    <g id="ytick_6">
     <g id="line2d_29">
      <path d="M 38.070938 51.290833 
L 760.368742 51.290833 
" clip-path="url(#p75067325a1)" style="fill: none; stroke: #e2e8f0; stroke-width: 0.8; stroke-linecap: round"/>
     </g>
     <g id="line2d_30"/>
     <g id="text_16">
      <text style="font-size: 10px; font-family: 'DejaVu Sans'; text-anchor: end; fill: #334155" x="34.570938" y="55.090052" transform="rotate(-0 34.570938 55.090052)">25</text>
     </g>
    </g>
    <g id="text_17">
     <text style="font-size: 11px; font-family: 'DejaVu Sans'; text-anchor: middle; fill: #0f172a" x="15.558281" y="200.4075" transform="rotate(-90 15.558281 200.4075)">Acceptance tests</text>
    </g>
   </g>
   <g id="patch_3">
    <path d="M 70.902656 375.4575 
L 95.815613 375.4575 
L 95.815613 116.124167 
L 70.902656 116.124167 
z
" clip-path="url(#p75067325a1)" style="fill: #22c55e"/>
   </g>
   <g id="patch_4">
    <path d="M 337.827196 375.4575 
L 362.740153 375.4575 
L 362.740153 51.290833 
L 337.827196 51.290833 
z
" clip-path="url(#p75067325a1)" style="fill: #22c55e"/>
   </g>
   <g id="patch_5">
    <path d="M 604.751736 375.4575 
L 629.664693 375.4575 
L 629.664693 51.290833 
L 604.751736 51.290833 
z
" clip-path="url(#p75067325a1)" style="fill: #22c55e"/>
   </g>
   <g id="patch_6">
    <path d="M 658.136644 375.4575 
L 683.049601 375.4575 
L 683.049601 77.224167 
L 658.136644 77.224167 
z
" clip-path="url(#p75067325a1)" style="fill: #22c55e"/>
   </g>
   <g id="patch_7">
    <path d="M 667.034128 375.4575 
L 691.947085 375.4575 
L 691.947085 51.290833 
L 667.034128 51.290833 
z
" clip-path="url(#p75067325a1)" style="fill: #22c55e"/>
   </g>
   <g id="patch_8">
    <path d="M 675.931613 375.4575 
L 700.84457 375.4575 
L 700.84457 51.290833 
L 675.931613 51.290833 
z
" clip-path="url(#p75067325a1)" style="fill: #22c55e"/>
   </g>
   <g id="patch_9">
    <path d="M 684.829098 375.4575 
L 709.742055 375.4575 
L 709.742055 51.290833 
L 684.829098 51.290833 
z
" clip-path="url(#p75067325a1)" style="fill: #22c55e"/>
   </g>
   <g id="patch_10">
    <path d="M 693.726582 375.4575 
L 718.639539 375.4575 
L 718.639539 51.290833 
L 693.726582 51.290833 
z
" clip-path="url(#p75067325a1)" style="fill: #22c55e"/>
   </g>
   <g id="patch_11">
    <path d="M 702.624067 375.4575 
L 727.537024 375.4575 
L 727.537024 51.290833 
L 702.624067 51.290833 
z
" clip-path="url(#p75067325a1)" style="fill: #22c55e"/>
   </g>
   <g id="patch_12">
    <path d="M 70.902656 116.124167 
L 95.815613 116.124167 
L 95.815613 51.290833 
L 70.902656 51.290833 
z
" clip-path="url(#p75067325a1)" style="fill: #ef4444"/>
   </g>
   <g id="patch_13">
    <path d="M 337.827196 51.290833 
L 362.740153 51.290833 
L 362.740153 51.290833 
L 337.827196 51.290833 
z
" clip-path="url(#p75067325a1)" style="fill: #ef4444"/>
   </g>
   <g id="patch_14">
    <path d="M 604.751736 51.290833 
L 629.664693 51.290833 
L 629.664693 51.290833 
L 604.751736 51.290833 
z
" clip-path="url(#p75067325a1)" style="fill: #ef4444"/>
   </g>
   <g id="patch_15">
    <path d="M 658.136644 77.224167 
L 683.049601 77.224167 
L 683.049601 51.290833 
L 658.136644 51.290833 
z
" clip-path="url(#p75067325a1)" style="fill: #ef4444"/>
   </g>
   <g id="patch_16">
    <path d="M 667.034128 51.290833 
L 691.947085 51.290833 
L 691.947085 51.290833 
L 667.034128 51.290833 
z
" clip-path="url(#p75067325a1)" style="fill: #ef4444"/>
   </g>
   <g id="patch_17">
    <path d="M 675.931613 51.290833 
L 700.84457 51.290833 
L 700.84457 51.290833 
L 675.931613 51.290833 
z
" clip-path="url(#p75067325a1)" style="fill: #ef4444"/>
   </g>
   <g id="patch_18">
    <path d="M 684.829098 51.290833 
L 709.742055 51.290833 
L 709.742055 51.290833 
L 684.829098 51.290833 
z
" clip-path="url(#p75067325a1)" style="fill: #ef4444"/>
   </g>
   <g id="patch_19">
    <path d="M 693.726582 51.290833 
L 718.639539 51.290833 
L 718.639539 51.290833 
L 693.726582 51.290833 
z
" clip-path="url(#p75067325a1)" style="fill: #ef4444"/>
   </g>
   <g id="patch_20">
    <path d="M 702.624067 51.290833 
L 727.537024 51.290833 
L 727.537024 51.290833 
L 702.624067 51.290833 
z
" clip-path="url(#p75067325a1)" style="fill: #ef4444"/>
   </g>
   <g id="patch_21">
    <path d="M 38.070938 375.4575 
L 38.070938 25.3575 
" style="fill: none; stroke: #cbd5e1; stroke-linejoin: miter; stroke-linecap: square"/>
   </g>
   <g id="patch_22">
    <path d="M 38.070937 375.4575 
L 760.368742 375.4575 
" style="fill: none; stroke: #cbd5e1; stroke-linejoin: miter; stroke-linecap: square"/>
   </g>
   <g id="text_18">
    <text style="font-weight: 700; font-size: 9px; font-family: 'DejaVu Sans'; text-anchor: middle; fill: #ffffff" x="83.359134" y="133.336094" transform="rotate(-0 83.359134 133.336094)">20/25</text>
   </g>
   <g id="text_19">
    <text style="font-size: 8px; font-family: 'DejaVu Sans'; text-anchor: middle; fill: #ffffff" x="83.359134" y="63.204583" transform="rotate(-0 83.359134 63.204583)">5 fail</text>
   </g>
   <g id="text_20">
    <text style="font-weight: 700; font-size: 9px; font-family: 'DejaVu Sans'; text-anchor: middle; fill: #ffffff" x="350.283674" y="68.50276" transform="rotate(-0 350.283674 68.50276)">25/25</text>
   </g>
   <g id="text_21">
    <text style="font-weight: 700; font-size: 9px; font-family: 'DejaVu Sans'; text-anchor: middle; fill: #ffffff" x="617.208214" y="68.50276" transform="rotate(-0 617.208214 68.50276)">25/25</text>
   </g>
   <g id="text_22">
    <text style="font-weight: 700; font-size: 9px; font-family: 'DejaVu Sans'; text-anchor: middle; fill: #ffffff" x="670.593122" y="94.436094" transform="rotate(-0 670.593122 94.436094)">23/25</text>
   </g>
   <g id="text_23">
    <text style="font-size: 8px; font-family: 'DejaVu Sans'; text-anchor: middle; fill: #ffffff" x="670.593122" y="63.204583" transform="rotate(-0 670.593122 63.204583)">2 fail</text>
   </g>
   <g id="text_24">
    <text style="font-weight: 700; font-size: 9px; font-family: 'DejaVu Sans'; text-anchor: middle; fill: #ffffff" x="679.490607" y="68.50276" transform="rotate(-0 679.490607 68.50276)">25/25</text>
   </g>
   <g id="text_25">
    <text style="font-weight: 700; font-size: 9px; font-family: 'DejaVu Sans'; text-anchor: middle; fill: #ffffff" x="688.388091" y="68.50276" transform="rotate(-0 688.388091 68.50276)">25/25</text>
   </g>
   <g id="text_26">
    <text style="font-weight: 700; font-size: 9px; font-family: 'DejaVu Sans'; text-anchor: middle; fill: #ffffff" x="697.285576" y="68.50276" transform="rotate(-0 697.285576 68.50276)">25/25</text>
   </g>
   <g id="text_27">
    <text style="font-weight: 700; font-size: 9px; font-family: 'DejaVu Sans'; text-anchor: middle; fill: #ffffff" x="706.183061" y="68.50276" transform="rotate(-0 706.183061 68.50276)">25/25</text>
   </g>
   <g id="text_28">
    <text style="font-weight: 700; font-size: 9px; font-family: 'DejaVu Sans'; text-anchor: middle; fill: #ffffff" x="715.080545" y="68.50276" transform="rotate(-0 715.080545 68.50276)">25/25</text>
   </g>
   <g id="patch_23">
    <path d="M 632.883085 128.844249 
Q 651.147733 103.842347 668.555008 80.014076 
" style="fill: none; stroke: #ef4444; stroke-width: 1.3; stroke-linecap: round"/>
    <path d="M 664.580479 82.064227 
L 668.555008 80.014076 
L 667.810411 84.42379 
" style="fill: none; stroke: #ef4444; stroke-width: 1.3; stroke-linecap: round"/>
   </g>
   <g id="text_29">
    <g id="patch_24">
     <path d="M 510.438398 147.637187 
L 740.054023 147.637187 
Q 743.554023 147.637187 743.554023 144.137187 
L 743.554023 134.459062 
Q 743.554023 130.959062 740.054023 130.959062 
L 510.438398 130.959062 
Q 506.938398 130.959062 506.938398 134.459062 
L 506.938398 144.137187 
Q 506.938398 147.637187 510.438398 147.637187 
z
" style="fill: #fef2f2; stroke: #fecaca; stroke-linejoin: miter"/>
    </g>
    <text style="font-size: 10px; font-family: 'DejaVu Sans'; text-anchor: start; fill: #991b1b" x="510.438398" y="142.0575" transform="rotate(-0 510.438398 142.0575)">Run 76 dip while regression work was in flight</text>
   </g>
   <g id="text_30">
    <text style="font-weight: 700; font-size: 16px; font-family: 'DejaVu Sans'; text-anchor: middle; fill: #262626" x="399.21984" y="19.3575" transform="rotate(-0 399.21984 19.3575)">Acceptance Test Results Over Time</text>
   </g>
   <g id="legend_1">
    <g id="patch_25">
     <path d="M 47.070938 41.955937 
L 67.070938 41.955937 
L 67.070938 34.955937 
L 47.070938 34.955937 
z
" style="fill: #22c55e"/>
    </g>
    <g id="text_31">
     <text style="font-size: 10px; font-family: 'DejaVu Sans'; text-anchor: start; fill: #262626" x="75.070938" y="41.955937" transform="rotate(-0 75.070938 41.955937)">Passed</text>
    </g>
    <g id="patch_26">
     <path d="M 47.070938 56.634062 
L 67.070938 56.634062 
L 67.070938 49.634062 
L 47.070938 49.634062 
z
" style="fill: #ef4444"/>
    </g>
    <g id="text_32">
     <text style="font-size: 10px; font-family: 'DejaVu Sans'; text-anchor: start; fill: #262626" x="75.070938" y="56.634062" transform="rotate(-0 75.070938 56.634062)">Failed</text>
    </g>
   </g>
  </g>
 </g>
 <defs>
  <clipPath id="p75067325a1">
   <rect x="38.070938" y="25.3575" width="722.297805" height="350.1"/>
  </clipPath>
 </defs>
</svg>
